<svg t="1619807391340" class="icon" viewBox="0 0 1024 1024" version="1.1" xmlns="http://www.w3.org/2000/svg"
  p-id="13869" width="200" height="200">
  <path
    d="M868.174 1002.296H133.566c-49.176 0-89.044-39.866-89.044-89.044V134.122c0-49.176 39.866-89.044 89.044-89.044h734.608c49.176 0 89.044 39.866 89.044 89.044v779.13c0 49.176-39.868 89.044-89.044 89.044z"
    fill="#8E9A9B" p-id="13870"></path>
  <path
    d="M1024 979.478c0 24.59-19.932 44.522-44.522 44.522H89.044C39.866 1024 0 984.132 0 934.956V645.566c0-24.59 19.932-44.522 44.522-44.522H1024v378.434z"
    fill="#9FBA41" p-id="13871"></path>
  <path
    d="M578.782 818.644h-178.086a16.698 16.698 0 0 1 0-33.392h178.086a16.698 16.698 0 0 1 0 33.392z m38.958 77.912h-89.044a16.698 16.698 0 0 0 0 33.392h89.044a16.698 16.698 0 0 0 0-33.392z m322.782-200.348h-89.044a16.698 16.698 0 0 0 0 33.392h89.044a16.698 16.698 0 0 0 0-33.392z"
    fill="#7F932A" p-id="13872"></path>
  <path
    d="M732.64 386.344c0 194.774-157.896 352.67-352.67 352.67S27.3 581.118 27.3 386.344 185.198 33.674 379.97 33.674 732.64 191.57 732.64 386.344z"
    fill="#FF7039" p-id="13873"></path>
  <path
    d="M667.826 386.344c0 157.892-127.996 285.888-285.888 285.888S96.048 544.236 96.048 386.344 224.046 100.456 381.938 100.456s285.888 127.996 285.888 285.888z"
    fill="#FF8950" p-id="13874"></path>
  <path
    d="M619.954 391.56c0 132.54-107.444 239.982-239.982 239.982S139.99 524.098 139.99 391.56s107.444-239.982 239.98-239.982 239.984 107.446 239.984 239.982z"
    fill="#A9B9BB" p-id="13875"></path>
  <path
    d="M575.432 391.56c0 107.95-87.51 195.46-195.46 195.46s-195.46-87.51-195.46-195.46 87.51-195.46 195.46-195.46 195.46 87.512 195.46 195.46z"
    fill="#C7D7D8" p-id="13876"></path>
  <path
    d="M586.8 817.176a16.692 16.692 0 0 1-22.072-8.386l-167.278-372.252h-34.962L195.214 808.79a16.694 16.694 0 1 1-30.458-13.686L336.458 413a16.698 16.698 0 0 1 15.228-9.852h56.564a16.69 16.69 0 0 1 15.228 9.852l171.702 382.104a16.692 16.692 0 0 1-8.38 22.072z"
    fill="#A03D07" p-id="13877"></path>
  <path
    d="M442.23 391.56c0 34.384-27.872 62.256-62.256 62.256s-62.256-27.872-62.256-62.256 27.872-62.256 62.256-62.256 62.256 27.874 62.256 62.256z"
    fill="#FF7039" p-id="13878"></path>
  <path
    d="M419.97 391.56c0 22.09-17.906 39.996-39.996 39.996-22.09 0-39.996-17.906-39.996-39.996s17.906-39.996 39.996-39.996c22.088 0 39.996 17.906 39.996 39.996z"
    fill="#FF8950" p-id="13879"></path>
  <path
    d="M421.274 27.022v4.13c0 22.81-18.492 41.3-41.3 41.3-22.81 0-41.3-18.49-41.3-41.3v-4.13c0-11.404 9.244-20.652 20.652-20.652h41.3c11.4 0.004 20.648 9.248 20.648 20.652zM128.034 122.016h-41.3c-11.404 0-20.652 9.244-20.652 20.65v4.13c0 22.81 18.492 41.3 41.3 41.3 22.81 0 41.3-18.492 41.3-41.3v-4.13c0.002-11.404-9.242-20.65-20.648-20.65zM652.56 188.098c22.81 0 41.3-18.492 41.3-41.3v-4.13c0-11.404-9.244-20.65-20.652-20.65h-41.3c-11.404 0-20.652 9.244-20.652 20.65v4.13c0.002 22.808 18.492 41.3 41.304 41.3zM128.034 584.59h-41.3c-11.404 0-20.652 9.244-20.652 20.652v4.13c0 22.81 18.492 41.3 41.3 41.3 22.81 0 41.3-18.492 41.3-41.3v-4.13c0.002-11.406-9.242-20.652-20.648-20.652z m545.174 0h-41.3c-11.404 0-20.652 9.244-20.652 20.652v4.13c0 22.81 18.492 41.3 41.3 41.3 22.81 0 41.3-18.492 41.3-41.3v-4.13c0.004-11.406-9.24-20.652-20.648-20.652zM82.604 378.084v-4.13c0-11.404-9.244-20.652-20.652-20.652h-41.3C9.248 353.302 0 362.548 0 373.954v4.13c0 22.81 18.492 41.3 41.3 41.3 22.812 0.002 41.304-18.49 41.304-41.3z m656.688-24.782h-41.3c-11.404 0-20.652 9.244-20.652 20.652v4.13c0 22.81 18.492 41.3 41.3 41.3s41.3-18.492 41.3-41.3v-4.13c0.002-11.404-9.244-20.652-20.648-20.652z"
    fill="#FFF145" p-id="13880"></path>
  <path
    d="M467.478 946.086c0 43.03-34.882 77.914-77.914 77.914H89.044C39.866 1024 0 984.132 0 934.956v-89.044c0-61.472 49.834-111.304 111.304-111.304 39.568 0 74.292 20.666 94.028 51.774a111.014 111.014 0 0 1 39.538-7.252c53.846 0 98.76 38.24 109.074 89.044h35.622c43.03 0 77.912 34.882 77.912 77.912z"
    fill="#606D11" p-id="13881"></path>
  <path
    d="M259.622 1024H89.044C39.866 1024 0 984.132 0 934.956v-89.044c0-12.244 9.276-22.26 44.522-22.26 53.846 0 98.76 38.24 109.074 89.044h35.622c43.03 0 77.914 34.882 77.914 77.914A77.612 77.612 0 0 1 259.622 1024z"
    fill="#7F932A" p-id="13882"></path>
  <path d="M957.218 33.948V601.6h-66.782V33.948c0-18.44 14.95-33.392 33.392-33.392 18.438 0 33.39 14.95 33.39 33.392z"
    fill="#A03D07" p-id="13883"></path>
  <path
    d="M1001.74 134.122h-155.826c-12.294 0-22.26-9.966-22.26-22.26 0-24.59 19.932-44.522 44.522-44.522h111.304c24.588 0 44.52 19.932 44.52 44.52 0 12.296-9.966 22.262-22.26 22.262z"
    fill="#FF7039" p-id="13884"></path>
  <path
    d="M1024 601.6a16.698 16.698 0 0 1-16.696 16.696H762.434a16.698 16.698 0 0 1 0-33.392h244.87A16.698 16.698 0 0 1 1024 601.6z"
    fill="#7F932A" p-id="13885"></path>
  <path
    d="M741.81 778.574h163.684c34.258 0 68.292 5.522 100.792 16.356l17.714 5.906V1001.74c0 12.294-9.966 22.26-22.26 22.26H645.566c-12.294 0-22.26-9.966-22.26-22.26V800.834l17.712-5.904a318.714 318.714 0 0 1 100.792-16.356z"
    fill="#FF8950" p-id="13886"></path>
  <path d="M823.652 801.392H1024V1001.74c0 12.294-9.966 22.26-22.26 22.26h-178.086V801.392z" fill="#FF7039"
    p-id="13887"></path>
  <path d="M823.652 868.174V1024h-133.566l133.566-155.826z" fill="#A03D07" p-id="13888"></path>
  <path
    d="M850.492 675.944A514.624 514.624 0 0 0 1024 801.948H623.304a514.618 514.618 0 0 0 173.508-126.004c14.346-15.938 39.336-15.938 53.68 0z"
    fill="#FF8950" p-id="13889"></path>
  <path d="M823.652 801.948H623.304a514.618 514.618 0 0 0 173.508-126.004 35.964 35.964 0 0 1 26.84-11.954v137.958z"
    fill="#FFA47B" p-id="13890"></path>
  <path
    d="M33.392 16.696v2.226A16.698 16.698 0 0 1 0 18.922V16.696a16.698 16.698 0 0 1 33.392 0zM16.696 677.844A16.698 16.698 0 0 0 0 694.54v2.226a16.698 16.698 0 0 0 33.392 0v-2.226a16.696 16.696 0 0 0-16.696-16.696zM172.522 32.278a16.698 16.698 0 0 0-16.696 16.696V51.2a16.698 16.698 0 0 0 33.392 0v-2.226a16.698 16.698 0 0 0-16.696-16.696z m556.522 2.226a16.698 16.698 0 0 0-16.696 16.696v2.226a16.698 16.698 0 0 0 33.392 0V51.2a16.698 16.698 0 0 0-16.696-16.696zM523.13 276.034v-2.226a16.698 16.698 0 0 0-33.392 0v2.226a16.698 16.698 0 0 0 33.392 0z m5.566 114.644a16.698 16.698 0 0 0-16.696 16.696v2.226a16.698 16.698 0 0 0 33.392 0v-2.226a16.698 16.698 0 0 0-16.696-16.696z m-289.392-44.522a16.698 16.698 0 0 0-16.696 16.696v2.226a16.698 16.698 0 0 0 33.392 0v-2.226a16.698 16.698 0 0 0-16.696-16.696z m578.782-66.782a16.698 16.698 0 0 0-16.696 16.696v2.226a16.698 16.698 0 0 0 33.392 0v-2.226a16.696 16.696 0 0 0-16.696-16.696z m-22.26 198.122a16.698 16.698 0 0 0-16.696 16.696v2.226a16.698 16.698 0 0 0 33.392 0v-2.226a16.696 16.696 0 0 0-16.696-16.696z m211.478-109.078a16.698 16.698 0 0 0-16.696 16.696v2.226a16.698 16.698 0 0 0 33.392 0v-2.226a16.696 16.696 0 0 0-16.696-16.696z"
    fill="#FFED8F" p-id="13891"></path>
</svg>